<svg width="0" height="0" class="hidden">
  <symbol version="1.1" id="facebook" xmlns="http://www.w3.org/2000/svg" xmlns:xlink="http://www.w3.org/1999/xlink" x="0px" y="0px" xml:space="preserve" viewBox="0 0 512 512">
    <g>
      <g>
        <g>
          <path d="M469.333,0H42.667C19.14,0,0,19.14,0,42.667v426.667C0,492.86,19.14,512,42.667,512h196.267V341.333h-68.267v-102.4
				h68.267v-42.667c0-57.489,44.672-106.197,101.7-110.908l94.566-0.026v102.4h-85.333c-4.702,0-8.533,3.831-8.533,8.533v42.667
				h85.333v102.4h-85.333V512h128C492.86,512,512,492.86,512,469.333V42.667C512,19.14,492.86,0,469.333,0z"></path>
          <path d="M409.6,256h-85.333v-59.733c0-14.114,11.486-25.6,25.6-25.6h68.267V102.4h-76.8C293.794,106.351,256,147.593,256,196.267
				V256h-68.267v68.267H256V512h68.267V324.267H409.6V256z"></path>
        </g>
      </g>
    </g>
  </symbol>
  <symbol version="1.1" id="linkedin" xmlns="http://www.w3.org/2000/svg" xmlns:xlink="http://www.w3.org/1999/xlink" x="0px" y="0px" xml:space="preserve" viewBox="0 0 512.003 512.003">
    <g transform="translate(0 -1)">
      <g>
        <g>
          <path d="M68.762,5.195h-0.06c-18.261,0-35.482,7.1-48.478,19.985C7.185,38.1,0,55.243,0,73.453
				c-0.009,18.611,7.33,36.053,20.625,49.092c12.894,12.629,30.481,19.721,47.531,19.311c0.495,0.009,0.99,0.017,1.493,0.017
				c17.092,0,34.014-6.963,46.618-19.251c13.286-12.945,20.625-30.319,20.668-48.922c0.043-18.193-7.074-35.362-20.019-48.358
				C103.979,12.363,86.878,5.212,68.762,5.195z"></path>
          <path d="M102.403,158.941H33.411c-13.713,0-24.875,11.511-24.875,25.651v298.615c0,13.841,11.725,25.532,25.6,25.532h68.267
				c13.875,0,25.6-11.46,25.6-25.011V184.541C128.003,170.666,116.279,158.941,102.403,158.941z"></path>
          <path d="M393.645,150.408h-17.98c-33.135,0-64.922,14.114-85.53,37.427v-11.827c0-8.457-8.619-17.067-17.067-17.067h-85.333
				c-7.893,0-17.067,6.997-17.067,16.017v318.404c0,9.054,8.994,15.369,17.067,15.377l93.867,0.026
				c8.073,0,17.067-6.315,17.067-15.377V309.435c0-27.75,20.574-49.724,46.839-50.022c13.355-0.299,25.975,4.966,35.422,14.43
				c7.808,7.808,11.605,19.208,11.605,34.859v183.04c0,8.457,8.619,17.067,17.067,17.067h85.333c8.448,0,17.067-8.61,17.067-17.067
				V271.496C512.003,203.596,460.009,150.408,393.645,150.408z"></path>
        </g>
      </g>
    </g>
  </symbol>
  <symbol version="1.1" id="twitter" xmlns="http://www.w3.org/2000/svg" xmlns:xlink="http://www.w3.org/1999/xlink" x="0px" y="0px" xml:space="preserve" viewBox="0 0 511.588 511.588">
    <g>
      <g>
        <path d="M508.508,93.804c-2.794-2.708-6.795-3.601-10.44-2.334l-17.252,5.953c10.162-12.297,17.66-25.14,21.608-37.315
			c1.146-3.549,0.104-7.48-2.647-10.006c-2.768-2.543-6.786-3.263-10.275-1.805c-24.194,10.145-45.603,18.979-62.629,24.264
			c-0.633,0.2-1.284,0.113-1.935-0.252c-13.572-7.602-47.547-25.062-71.68-24.784c-61.032,1.119-110.696,53.274-110.696,116.267
			v3.445c-89.869-17.399-139.533-43.251-193.31-99.666l-8.4-8.817l-5.589,10.821C6.071,126.043,26.768,176.653,60.881,210.74
			c-15.117-2.317-26.095-7.185-35.337-15.247c-3.549-3.072-8.583-3.454-12.54-0.937c-3.896,2.482-5.675,7.125-4.417,11.55
			c11.481,40.622,42.227,73.98,74.683,93.913c-15.681-0.017-28.585-1.762-41.559-10.101c-3.775-2.43-8.687-2.178-12.21,0.607
			c-3.497,2.777-4.842,7.463-3.35,11.672c15.82,44.431,45.403,67.801,94.425,73.624c-25.201,14.735-57.899,26.381-108.952,27.448
			c-4.981,0.104-9.39,3.341-10.986,8.044C-0.958,416,0.5,421.033,4.344,424.122c31.024,25.01,100.612,39.945,186.151,39.945
			c153.123,0,277.695-136.253,277.695-303.729v-2.942c19.812-9.468,34.929-28.151,42.921-53.274
			C512.274,100.46,511.276,96.503,508.508,93.804z"></path>
      </g>
    </g>
  </symbol>
  <symbol version="1.1" id="viber" xmlns="http://www.w3.org/2000/svg" xmlns:xlink="http://www.w3.org/1999/xlink" x="0px" y="0px" xml:space="preserve" viewBox="0 0 512.019 512.019">
    <g transform="translate(0 -1)">
      <g>
        <g>
          <path d="M255.994,42.372c5.88,4.412,11.025,4.89,26.402,5.76c45.056,2.586,73.626,12.211,105.404,35.541
				c38.903,28.459,63.309,68.156,72.559,117.99c2.381,12.902,3.558,23.851,4.36,40.354c0.486,11.068,0.87,15.36,3.388,20.207
				c3.55,6.613,10.428,11.008,18.406,11.75c0.785,0.068,1.57,0.102,2.347,0.102c7.1,0,13.688-3.004,17.894-8.235
				c5.589-6.81,5.581-13.158,5.035-26.829c-1.604-42.342-10.863-80.384-27.52-113.067c-11.878-23.253-23.219-38.485-43.358-58.231
				c-21.478-20.881-38.033-32.563-63.309-44.638C350.825,10.295,331.881,6.25,304.139,2.863c-5.598-0.64-16.137-1.476-23.45-1.715
				c-13.935-0.461-19.379-0.085-25.813,5.632c-4.932,4.343-7.62,10.94-7.398,18.116C247.699,32.021,250.788,38.361,255.994,42.372z"></path>
          <path d="M396.436,225.422c0,11.989,0.99,23.245,12.808,29.065c3.243,1.681,7.467,2.526,11.588,2.526
				c3.661,0,7.228-0.674,9.95-2.039c4.779-2.458,9.6-7.646,11.486-12.339c2.398-6.05,1.306-27.742,0.623-33.86
				c-3.2-27.332-12.698-53.137-27.46-74.615c-26.743-38.852-66.816-62.345-119.083-69.828c-17.724-2.611-30.891-3.533-38.639,8.294
				c-6.084,8.986-5.308,20.446,1.877,28.476c5.726,6.494,13.926,7.962,21.18,8.542c20.77,1.638,44.032,8.439,59.281,17.323
				l0.026,0.008c17.741,10.274,32.427,25.208,42.487,43.196C391.376,185.904,396.436,206.043,396.436,225.422z"></path>
          <path d="M350.977,152.133c-11.674-10.692-25.353-17.391-43.017-21.077c-4.045-0.853-10.906-1.596-15.172-1.835
				c-7.356-0.452-10.385-0.375-15.616,2.167c-6.323,3.174-10.752,9.062-12.169,16.137c-1.408,7.031,0.393,14.106,5.001,19.482
				c5.325,6.084,10.778,7.603,21.777,8.909c18.381,2.202,28.732,8.388,34.586,20.659c2.961,6.263,4.642,13.124,5.615,22.989
				c1.007,9.242,2.816,15.172,9.395,20.036c4.139,3.123,9.378,4.668,14.566,4.668c5.675,0,11.298-1.852,15.403-5.513l0.051-0.034
				c8.482-7.671,8.841-17.186,6.545-32.034C374.384,182.904,366.081,166.076,350.977,152.133z"></path>
          <path d="M511.965,413.822c-0.418-9.293-3.61-17.604-9.566-24.781c-5.751-6.784-42.487-35.831-58.88-47.053
				c-12.749-8.678-32.896-20.898-42.317-25.668c-13.918-6.921-27.913-8.132-41.685-3.567c-3.012,1.007-5.163,1.903-7.185,2.961
				c-6.972,3.661-12.092,9.429-22.042,21.666c-10.658,12.868-12.877,15.369-12.851,15.369c-1.007,0.606-2.611,1.459-4.557,2.347
				c-7.927,3.61-20.924,0.64-42.061-9.66c-17.835-8.627-33.852-19.703-51.942-35.9c-15.411-13.73-30.908-31.539-39.509-45.355
				c-11.947-19.166-19.174-41.344-19.26-51.644c0-4.011,1.758-9.771,3.661-12.945l0.836-0.862c0.563-0.546,1.186-1.135,2.039-1.886
				c2.97-2.671,7.27-6.246,11.75-9.788c19.661-15.488,25.89-21.76,29.218-33.408c3.217-10.769,0.393-24.03-8.892-41.719
				c-13.833-26.394-57.694-82.569-75.998-94.413c-3.012-1.886-7.97-4.429-11.477-5.606c-7.509-2.654-18.295-3.558-25.003-2.133
				c-9.284,1.903-19.473,7.748-41.958,24.081C31.965,42.878,12.97,60.516,7.815,68.947c-12.16,20.42-9.062,38.135,1.963,67.806
				c10.505,28.314,23.979,56.815,39.996,84.642l0.836,1.408c3.226,5.572,6.528,11.128,9.993,16.7l0.896,1.408
				c3.439,5.47,6.921,10.931,10.564,16.367l5.743,8.354c2.142,3.123,4.275,6.238,6.485,9.336
				c4.361,6.076,8.832,12.134,13.466,18.176c49.399,64.324,106.308,115.968,173.969,157.858l2.773,1.741
				c9.822,6.016,20.275,12.032,31.061,17.869l4.215,2.27c11.162,5.939,21.768,11.264,32.427,16.256l3.319,1.51
				c12.587,5.828,24.098,10.837,35.174,15.3c13.406,5.41,19.61,7.066,29.03,7.066c1.673,0,3.456-0.051,5.402-0.145
				c6.076-0.29,11.537-1.195,16.708-2.773c7.262-2.202,14.532-5.897,22.852-11.64c1.451-0.998,2.901-2.014,4.463-3.166
				c1.843-1.357,3.806-3.021,5.794-4.736c9.481-8.201,20.361-20.113,29.124-31.863c4.676-6.272,10.889-15.377,13.986-23.194
				c2.901-7.313,4.215-14.609,3.908-21.666V413.822z"></path>
        </g>
      </g>
    </g>
  </symbol>
  <symbol version="1.1" id="whatsapp" xmlns="http://www.w3.org/2000/svg" xmlns:xlink="http://www.w3.org/1999/xlink" x="0px" y="0px" xml:space="preserve" viewBox="0 0 507.249 507.249">
    <g>
      <g>
        <g>
          <path d="M254.674,0.05C116.258,0.05,3.643,112.439,3.643,250.586c0,42.823,11.507,85.538,33.305,123.761L0,507.199
				l135.252-36.461c39.432,21.546,80.653,32.919,119.422,32.919c136.914,0,252.575-115.897,252.575-253.071
				C507.249,112.439,393.946,0.05,254.674,0.05z M254.674,461.69c-36.663,0-74.324-11.163-108.938-32.281l-4.365-2.677
				l-82.516,21.244l22.478-79.83l-2.946-4.591C56.941,330.173,45.61,291.11,45.61,250.586c0-115.007,93.788-208.569,209.064-208.569
				c116.132,0,210.608,93.562,210.608,208.569C465.282,366.986,370.805,461.69,254.674,461.69z"></path>
          <path d="M299.502,313.353c-3.785,4.919-10.265,6.841-16.132,4.784c-14.814-5.204-65.293-26.322-92.957-79.603
				c-2.736-5.296-1.998-11.6,1.863-16.073l19.909-23.032l-22.855-53.105l-15.553-0.848c-0.193-0.017-0.394-0.017-0.596-0.017
				c-2.552,0-5.002,0.898-6.925,2.577c-6.387,5.548-17.584,17.022-20.849,31.559c-5.128,22.83,3.374,50.831,23.921,78.848
				c13.539,18.466,54.75,74.651,132.868,96.734c18.608,5.263,35.412,3.257,49.882-6.001c9.292-5.943,15.99-15.738,18.373-26.876
				l2.51-11.709l-52.937-24.173L299.502,313.353z"></path>
          <path d="M254.673,58.8c-106.026,0-192.277,86.033-192.277,191.79c0,37.292,10.408,73.224,30.116,103.894l7.034,10.937
				l-16.627,59.023l61.138-15.738l10.441,6.379c31.954,19.506,66.602,29.814,100.176,29.814
				c106.874,0,193.821-87.166,193.821-194.308C448.494,144.833,361.547,58.8,254.673,58.8z M389.371,314.104l-2.51,11.717
				c-3.307,15.486-12.699,29.15-25.734,37.493c-12.045,7.697-25.189,11.558-39.29,11.558c-7.789,0-15.872-1.175-24.215-3.534
				c-83.666-23.661-127.446-83.347-141.832-102.962c-23.46-31.987-32.969-64.823-26.767-92.454
				c4.323-19.221,18.281-33.658,26.213-40.549c5.389-4.692,12.372-7.017,19.464-6.664l15.704,0.856
				c6.32,0.344,11.793,4.18,14.294,10.005l22.889,53.525c2.459,5.775,1.402,12.565-2.703,17.307L206.05,232.2
				c24.014,44.989,66.283,63.983,81.24,69.498l19.75-25.608c4.751-6.136,12.985-8.15,20.01-4.919l53.08,24.467
				C387.197,298.895,390.999,306.491,389.371,314.104z"></path>
        </g>
      </g>
    </g>
  </symbol>
</svg>


