<svg width="0" height="0" class="hidden">
  <symbol version="1.1" id="facebook" xmlns="http://www.w3.org/2000/svg" xmlns:xlink="http://www.w3.org/1999/xlink" x="0px" y="0px" xml:space="preserve" viewBox="0 0 512 512">
    <g>
      <g>
        <g>
          <path d="M469.333,0H42.667C19.14,0,0,19.14,0,42.667v426.667C0,492.86,19.14,512,42.667,512h196.267V341.333h-68.267v-102.4
				h68.267v-42.667c0-57.489,44.672-106.197,101.7-110.908l94.566-0.026v102.4h-85.333c-4.702,0-8.533,3.831-8.533,8.533v42.667
				h85.333v102.4h-85.333V512h128C492.86,512,512,492.86,512,469.333V42.667C512,19.14,492.86,0,469.333,0z"></path>
          <path d="M409.6,256h-85.333v-59.733c0-14.114,11.486-25.6,25.6-25.6h68.267V102.4h-76.8C293.794,106.351,256,147.593,256,196.267
				V256h-68.267v68.267H256V512h68.267V324.267H409.6V256z"></path>
        </g>
      </g>
    </g>
  </symbol>
  <symbol version="1.1" id="linkedin" xmlns="http://www.w3.org/2000/svg" xmlns:xlink="http://www.w3.org/1999/xlink" x="0px" y="0px" xml:space="preserve" viewBox="0 0 512.003 512.003">
    <g transform="translate(0 -1)">
      <g>
        <g>
          <path d="M68.762,5.195h-0.06c-18.261,0-35.482,7.1-48.478,19.985C7.185,38.1,0,55.243,0,73.453
				c-0.009,18.611,7.33,36.053,20.625,49.092c12.894,12.629,30.481,19.721,47.531,19.311c0.495,0.009,0.99,0.017,1.493,0.017
				c17.092,0,34.014-6.963,46.618-19.251c13.286-12.945,20.625-30.319,20.668-48.922c0.043-18.193-7.074-35.362-20.019-48.358
				C103.979,12.363,86.878,5.212,68.762,5.195z"></path>
          <path d="M102.403,158.941H33.411c-13.713,0-24.875,11.511-24.875,25.651v298.615c0,13.841,11.725,25.532,25.6,25.532h68.267
				c13.875,0,25.6-11.46,25.6-25.011V184.541C128.003,170.666,116.279,158.941,102.403,158.941z"></path>
          <path d="M393.645,150.408h-17.98c-33.135,0-64.922,14.114-85.53,37.427v-11.827c0-8.457-8.619-17.067-17.067-17.067h-85.333
				c-7.893,0-17.067,6.997-17.067,16.017v318.404c0,9.054,8.994,15.369,17.067,15.377l93.867,0.026
				c8.073,0,17.067-6.315,17.067-15.377V309.435c0-27.75,20.574-49.724,46.839-50.022c13.355-0.299,25.975,4.966,35.422,14.43
				c7.808,7.808,11.605,19.208,11.605,34.859v183.04c0,8.457,8.619,17.067,17.067,17.067h85.333c8.448,0,17.067-8.61,17.067-17.067
				V271.496C512.003,203.596,460.009,150.408,393.645,150.408z"></path>
        </g>
      </g>
    </g>
  </symbol>
  <symbol version="1.1" id="twitter" xmlns="http://www.w3.org/2000/svg" xmlns:xlink="http://www.w3.org/1999/xlink" x="0px" y="0px" xml:space="preserve" viewBox="0 0 511.588 511.588">
    <g>
      <g>
        <path d="M508.508,93.804c-2.794-2.708-6.795-3.601-10.44-2.334l-17.252,5.953c10.162-12.297,17.66-25.14,21.608-37.315
			c1.146-3.549,0.104-7.48-2.647-10.006c-2.768-2.543-6.786-3.263-10.275-1.805c-24.194,10.145-45.603,18.979-62.629,24.264
			c-0.633,0.2-1.284,0.113-1.935-0.252c-13.572-7.602-47.547-25.062-71.68-24.784c-61.032,1.119-110.696,53.274-110.696,116.267
			v3.445c-89.869-17.399-139.533-43.251-193.31-99.666l-8.4-8.817l-5.589,10.821C6.071,126.043,26.768,176.653,60.881,210.74
			c-15.117-2.317-26.095-7.185-35.337-15.247c-3.549-3.072-8.583-3.454-12.54-0.937c-3.896,2.482-5.675,7.125-4.417,11.55
			c11.481,40.622,42.227,73.98,74.683,93.913c-15.681-0.017-28.585-1.762-41.559-10.101c-3.775-2.43-8.687-2.178-12.21,0.607
			c-3.497,2.777-4.842,7.463-3.35,11.672c15.82,44.431,45.403,67.801,94.425,73.624c-25.201,14.735-57.899,26.381-108.952,27.448
			c-4.981,0.104-9.39,3.341-10.986,8.044C-0.958,416,0.5,421.033,4.344,424.122c31.024,25.01,100.612,39.945,186.151,39.945
			c153.123,0,277.695-136.253,277.695-303.729v-2.942c19.812-9.468,34.929-28.151,42.921-53.274
			C512.274,100.46,511.276,96.503,508.508,93.804z"></path>
      </g>
    </g>
  </symbol>
  <symbol version="1.1" id="viber" xmlns="http://www.w3.org/2000/svg" xmlns:xlink="http://www.w3.org/1999/xlink" x="0px" y="0px" xml:space="preserve" viewBox="0 0 512.019 512.019">
    <g transform="translate(0 -1)">
      <g>
        <g>
          <path d="M255.994,42.372c5.88,4.412,11.025,4.89,26.402,5.76c45.056,2.586,73.626,12.211,105.404,35.541
				c38.903,28.459,63.309,68.156,72.559,117.99c2.381,12.902,3.558,23.851,4.36,40.354c0.486,11.068,0.87,15.36,3.388,20.207
				c3.55,6.613,10.428,11.008,18.406,11.75c0.785,0.068,1.57,0.102,2.347,0.102c7.1,0,13.688-3.004,17.894-8.235
				c5.589-6.81,5.581-13.158,5.035-26.829c-1.604-42.342-10.863-80.384-27.52-113.067c-11.878-23.253-23.219-38.485-43.358-58.231
				c-21.478-20.881-38.033-32.563-63.309-44.638C350.825,10.295,331.881,6.25,304.139,2.863c-5.598-0.64-16.137-1.476-23.45-1.715
				c-13.935-0.461-19.379-0.085-25.813,5.632c-4.932,4.343-7.62,10.94-7.398,18.116C247.699,32.021,250.788,38.361,255.994,42.372z"></path>
          <path d="M396.436,225.422c0,11.989,0.99,23.245,12.808,29.065c3.243,1.681,7.467,2.526,11.588,2.526
				c3.661,0,7.228-0.674,9.95-2.039c4.779-2.458,9.6-7.646,11.486-12.339c2.398-6.05,1.306-27.742,0.623-33.86
				c-3.2-27.332-12.698-53.137-27.46-74.615c-26.743-38.852-66.816-62.345-119.083-69.828c-17.724-2.611-30.891-3.533-38.639,8.294
				c-6.084,8.986-5.308,20.446,1.877,28.476c5.726,6.494,13.926,7.962,21.18,8.542c20.77,1.638,44.032,8.439,59.281,17.323
				l0.026,0.008c17.741,10.274,32.427,25.208,42.487,43.196C391.376,185.904,396.436,206.043,396.436,225.422z"></path>
          <path d="M350.977,152.133c-11.674-10.692-25.353-17.391-43.017-21.077c-4.045-0.853-10.906-1.596-15.172-1.835
				c-7.356-0.452-10.385-0.375-15.616,2.167c-6.323,3.174-10.752,9.062-12.169,16.137c-1.408,7.031,0.393,14.106,5.001,19.482
				c5.325,6.084,10.778,7.603,21.777,8.909c18.381,2.202,28.732,8.388,34.586,20.659c2.961,6.263,4.642,13.124,5.615,22.989
				c1.007,9.242,2.816,15.172,9.395,20.036c4.139,3.123,9.378,4.668,14.566,4.668c5.675,0,11.298-1.852,15.403-5.513l0.051-0.034
				c8.482-7.671,8.841-17.186,6.545-32.034C374.384,182.904,366.081,166.076,350.977,152.133z"></path>
          <path d="M511.965,413.822c-0.418-9.293-3.61-17.604-9.566-24.781c-5.751-6.784-42.487-35.831-58.88-47.053
				c-12.749-8.678-32.896-20.898-42.317-25.668c-13.918-6.921-27.913-8.132-41.685-3.567c-3.012,1.007-5.163,1.903-7.185,2.961
				c-6.972,3.661-12.092,9.429-22.042,21.666c-10.658,12.868-12.877,15.369-12.851,15.369c-1.007,0.606-2.611,1.459-4.557,2.347
				c-7.927,3.61-20.924,0.64-42.061-9.66c-17.835-8.627-33.852-19.703-51.942-35.9c-15.411-13.73-30.908-31.539-39.509-45.355
				c-11.947-19.166-19.174-41.344-19.26-51.644c0-4.011,1.758-9.771,3.661-12.945l0.836-0.862c0.563-0.546,1.186-1.135,2.039-1.886
				c2.97-2.671,7.27-6.246,11.75-9.788c19.661-15.488,25.89-21.76,29.218-33.408c3.217-10.769,0.393-24.03-8.892-41.719
				c-13.833-26.394-57.694-82.569-75.998-94.413c-3.012-1.886-7.97-4.429-11.477-5.606c-7.509-2.654-18.295-3.558-25.003-2.133
				c-9.284,1.903-19.473,7.748-41.958,24.081C31.965,42.878,12.97,60.516,7.815,68.947c-12.16,20.42-9.062,38.135,1.963,67.806
				c10.505,28.314,23.979,56.815,39.996,84.642l0.836,1.408c3.226,5.572,6.528,11.128,9.993,16.7l0.896,1.408
				c3.439,5.47,6.921,10.931,10.564,16.367l5.743,8.354c2.142,3.123,4.275,6.238,6.485,9.336
				c4.361,6.076,8.832,12.134,13.466,18.176c49.399,64.324,106.308,115.968,173.969,157.858l2.773,1.741
				c9.822,6.016,20.275,12.032,31.061,17.869l4.215,2.27c11.162,5.939,21.768,11.264,32.427,16.256l3.319,1.51
				c12.587,5.828,24.098,10.837,35.174,15.3c13.406,5.41,19.61,7.066,29.03,7.066c1.673,0,3.456-0.051,5.402-0.145
				c6.076-0.29,11.537-1.195,16.708-2.773c7.262-2.202,14.532-5.897,22.852-11.64c1.451-0.998,2.901-2.014,4.463-3.166
				c1.843-1.357,3.806-3.021,5.794-4.736c9.481-8.201,20.361-20.113,29.124-31.863c4.676-6.272,10.889-15.377,13.986-23.194
				c2.901-7.313,4.215-14.609,3.908-21.666V413.822z"></path>
        </g>
      </g>
    </g>
  </symbol>
  <symbol version="1.1" id="whatsapp" xmlns="http://www.w3.org/2000/svg" xmlns:xlink="http://www.w3.org/1999/xlink" x="0px" y="0px" xml:space="preserve" viewBox="0 0 507.249 507.249">
    <g>
      <g>
        <g>
          <path d="M254.674,0.05C116.258,0.05,3.643,112.439,3.643,250.586c0,42.823,11.507,85.538,33.305,123.761L0,507.199
				l135.252-36.461c39.432,21.546,80.653,32.919,119.422,32.919c136.914,0,252.575-115.897,252.575-253.071
				C507.249,112.439,393.946,0.05,254.674,0.05z M254.674,461.69c-36.663,0-74.324-11.163-108.938-32.281l-4.365-2.677
				l-82.516,21.244l22.478-79.83l-2.946-4.591C56.941,330.173,45.61,291.11,45.61,250.586c0-115.007,93.788-208.569,209.064-208.569
				c116.132,0,210.608,93.562,210.608,208.569C465.282,366.986,370.805,461.69,254.674,461.69z"></path>
          <path d="M299.502,313.353c-3.785,4.919-10.265,6.841-16.132,4.784c-14.814-5.204-65.293-26.322-92.957-79.603
				c-2.736-5.296-1.998-11.6,1.863-16.073l19.909-23.032l-22.855-53.105l-15.553-0.848c-0.193-0.017-0.394-0.017-0.596-0.017
				c-2.552,0-5.002,0.898-6.925,2.577c-6.387,5.548-17.584,17.022-20.849,31.559c-5.128,22.83,3.374,50.831,23.921,78.848
				c13.539,18.466,54.75,74.651,132.868,96.734c18.608,5.263,35.412,3.257,49.882-6.001c9.292-5.943,15.99-15.738,18.373-26.876
				l2.51-11.709l-52.937-24.173L299.502,313.353z"></path>
          <path d="M254.673,58.8c-106.026,0-192.277,86.033-192.277,191.79c0,37.292,10.408,73.224,30.116,103.894l7.034,10.937
				l-16.627,59.023l61.138-15.738l10.441,6.379c31.954,19.506,66.602,29.814,100.176,29.814
				c106.874,0,193.821-87.166,193.821-194.308C448.494,144.833,361.547,58.8,254.673,58.8z M389.371,314.104l-2.51,11.717
				c-3.307,15.486-12.699,29.15-25.734,37.493c-12.045,7.697-25.189,11.558-39.29,11.558c-7.789,0-15.872-1.175-24.215-3.534
				c-83.666-23.661-127.446-83.347-141.832-102.962c-23.46-31.987-32.969-64.823-26.767-92.454
				c4.323-19.221,18.281-33.658,26.213-40.549c5.389-4.692,12.372-7.017,19.464-6.664l15.704,0.856
				c6.32,0.344,11.793,4.18,14.294,10.005l22.889,53.525c2.459,5.775,1.402,12.565-2.703,17.307L206.05,232.2
				c24.014,44.989,66.283,63.983,81.24,69.498l19.75-25.608c4.751-6.136,12.985-8.15,20.01-4.919l53.08,24.467
				C387.197,298.895,390.999,306.491,389.371,314.104z"></path>
        </g>
      </g>
    </g>
  </symbol>
<symbol version="1.1" id="arrow" xmlns="http://www.w3.org/2000/svg" xmlns:xlink="http://www.w3.org/1999/xlink" x="0px" y="0px"
	 viewBox="0 0 512 512" style="enable-background:new 0 0 512 512;" xml:space="preserve">
<polygon style="fill:#93D16B;" points="502.312,256.169 317.965,99.457 306.222,176.41 48.439,176.41 9.688,335.929 
	281.878,335.929 270.185,412.541 "/>
<path d="M89.942,335.93c0-5.35-4.338-9.688-9.688-9.688H22.01l34.044-140.144h250.168c4.786,0,8.855-3.495,9.577-8.227l9.123-59.785
	l48.535,41.259c4.077,3.464,10.191,2.968,13.656-1.106c3.466-4.077,2.97-10.19-1.106-13.656l-61.766-52.507
	c-2.676-2.275-6.373-2.924-9.664-1.695c-3.29,1.228-5.658,4.142-6.187,7.615l-10.489,68.726H48.439c-4.469,0-8.359,3.057-9.414,7.4
	L0.274,333.643c-0.701,2.888-0.039,5.938,1.798,8.275s4.644,3.701,7.616,3.701h70.567C85.605,345.618,89.942,341.28,89.942,335.93z"
	/>
<path d="M508.587,248.788l-92.958-79.023c-4.077-3.466-10.192-2.97-13.656,1.106c-3.466,4.077-2.97,10.19,1.106,13.656
	l83.223,70.747L283.096,392.163l8.359-54.772c0.426-2.793-0.388-5.631-2.228-7.773c-1.841-2.143-4.525-3.375-7.348-3.375H119.005
	c-5.35,0-9.688,4.338-9.688,9.688c0,5.35,4.338,9.688,9.688,9.688h151.593l-9.99,65.462c-0.58,3.801,1.143,7.587,4.392,9.645
	c1.585,1.004,3.386,1.505,5.185,1.505c1.89,0,3.778-0.553,5.412-1.653l232.127-156.37c2.514-1.693,4.091-4.467,4.26-7.493
	C512.154,253.687,510.897,250.752,508.587,248.788z"/>
</symbol>

<symbol version="1.1" id="gallery" xmlns="http://www.w3.org/2000/svg" xmlns:xlink="http://www.w3.org/1999/xlink" x="0px" y="0px"
	 viewBox="0 0 511.999 511.999" style="enable-background:new 0 0 511.999 511.999;" xml:space="preserve">
<path style="fill:#7DD2F0;" d="M474.532,36.855H37.468c-16.022,0-29.012,12.989-29.012,29.01v380.267
	c0,16.022,12.989,29.01,29.012,29.01h437.063c16.022,0,29.012-12.989,29.012-29.01V65.866
	C503.543,49.843,490.554,36.855,474.532,36.855z"/>
<path style="fill:#A6E7FF;" d="M464.08,255.999V99.34c0-12.714-10.307-23.021-23.021-23.021H70.941
	c-12.714,0-23.021,10.307-23.021,23.021v156.641l197.197,109.713L464.08,255.999z"/>
<circle style="fill:#FFE97A;" cx="368.706" cy="162.579" r="44.008"/>
<path style="opacity:0.1;enable-background:new    ;" d="M347.246,173.849c0-24.305,19.704-44.008,44.009-44.008
	c2.582,0,5.109,0.235,7.569,0.662c-7.874-7.398-18.463-11.937-30.12-11.937c-24.305,0-44.009,19.704-44.009,44.008
	c0,21.723,15.743,39.757,36.44,43.347C352.591,197.893,347.246,186.499,347.246,173.849z"/>
<path style="fill:#FFFFFF;" d="M273.377,223.85c-1.259-24.515-21.535-44.005-46.363-44.005c-5.984,0-11.696,1.144-16.948,3.206
	c-1.836-28.504-25.523-51.059-54.492-51.059c-11.69,0-22.514,3.685-31.397,9.938c-7.012-21.45-27.173-36.952-50.966-36.952
	c-9.147,0-17.755,2.296-25.29,6.333v112.54h225.456V223.85z"/>
<path style="fill:#7EB35B;" d="M47.92,255.981v179.699h69.398l85.658-33.867l79.374-105.401
	C170.197,246.422,47.92,255.981,47.92,255.981z"/>
<path style="opacity:0.1;enable-background:new    ;" d="M266.782,317.087l15.569-20.675
	c-112.154-49.991-234.43-40.431-234.43-40.431v22.021C80.137,277.039,176.189,278.008,266.782,317.087z"/>
<path style="fill:#A5EB78;" d="M117.318,435.681h323.74c12.714,0,23.021-10.307,23.021-23.021v-156.66
	C464.08,255.999,238.178,250.396,117.318,435.681z"/>
<path style="opacity:0.1;enable-background:new    ;" d="M464.08,279.316v-23.316c0,0-225.901-5.604-346.761,179.68h38.474
	C254.743,305.88,407.084,283.196,464.08,279.316z"/>
<path d="M474.531,28.399H136.038c-4.671,0-8.457,3.785-8.457,8.457s3.785,8.457,8.457,8.457h338.493
	c11.335,0,20.555,9.221,20.555,20.554v380.267c0,11.334-9.221,20.554-20.555,20.554H37.468c-11.335,0-20.555-9.221-20.555-20.554
	V65.866c0-11.334,9.221-20.554,20.555-20.554h64.919c4.671,0,8.457-3.785,8.457-8.457s-3.785-8.457-8.457-8.457H37.468
	C16.808,28.399,0,45.206,0,65.866v380.267c0,20.66,16.808,37.467,37.468,37.467h437.063c20.66,0,37.468-16.807,37.468-37.467V65.866
	C512,45.206,495.192,28.399,474.531,28.399z"/>
<path d="M368.703,215.039c28.929,0,52.466-23.535,52.466-52.464s-23.536-52.466-52.466-52.466
	c-28.929,0-52.464,23.536-52.464,52.466S339.774,215.039,368.703,215.039z M368.703,127.021c19.605,0,35.552,15.949,35.552,35.552
	s-15.949,35.551-35.552,35.551c-19.603,0-35.551-15.949-35.551-35.551C333.152,142.97,349.1,127.021,368.703,127.021z"/>
<path d="M39.464,99.34v11.971v112.54V412.66c0,17.357,14.12,31.478,31.478,31.478h370.117c17.357,0,31.478-14.12,31.478-31.478
	V99.34c0-17.357-14.12-31.478-31.478-31.478H70.941C53.584,67.863,39.464,81.983,39.464,99.34z M73.21,113.434
	c19.591,0,36.843,12.508,42.928,31.123c0.833,2.549,2.827,4.552,5.373,5.398c2.549,0.848,5.342,0.433,7.534-1.109
	c7.803-5.493,16.977-8.397,26.529-8.397c24.266,0,44.495,18.953,46.053,43.148c0.173,2.695,1.623,5.145,3.902,6.593
	c2.279,1.45,5.112,1.722,7.627,0.735c4.431-1.739,9.094-2.62,13.859-2.62c17.14,0,31.715,11.35,36.395,27.091H56.377v-98.71
	C61.702,114.548,67.438,113.434,73.21,113.434z M455.623,99.34v148.299c-13.358,0.182-27.964,0.669-42.045,3.436
	c-4.582,0.901-7.568,5.346-6.667,9.929c0.793,4.032,4.329,6.827,8.29,6.827c0.54,0,1.089-0.052,1.639-0.16
	c12.663-2.49,25.852-2.939,38.783-3.115v148.106c0,8.03-6.534,14.564-14.564,14.564H133.382
	c26.754-37.298,60.667-69.383,101.046-95.489c43.493-28.119,93.44-48.05,144.443-57.639c4.59-0.864,7.611-5.284,6.748-9.874
	c-0.864-4.59-5.289-7.611-9.874-6.748c-32.136,6.041-63.859,16.049-93.949,29.477c-15.796-6.833-32.634-12.91-50.139-18.064
	c-4.484-1.321-9.182,1.244-10.501,5.723c-1.319,4.48,1.244,9.182,5.723,10.501c11.81,3.477,23.294,7.391,34.336,11.676
	c-12.366,6.336-24.392,13.258-35.974,20.746c-45.681,29.534-83.47,66.436-112.435,109.693H70.941
	c-8.03,0-14.564-6.534-14.564-14.564V264.123c41.783-1.282,84.986,2.165,125.467,10.046c0.545,0.106,1.089,0.157,1.624,0.157
	c3.967,0,7.506-2.803,8.292-6.842c0.892-4.583-2.101-9.024-6.686-9.917c-42.155-8.205-85.409-11.687-128.699-10.368v-14.894h217
	c2.318,0,4.534-0.952,6.132-2.633c1.597-1.68,2.433-3.943,2.315-6.258c-1.5-29.174-25.575-52.028-54.809-52.028
	c-3.379,0-6.724,0.307-10.011,0.917c-6.519-28.043-31.767-48.772-61.428-48.772c-9.578,0-18.881,2.138-27.368,6.241
	c-10.57-20.238-31.564-33.255-54.995-33.255c-5.692,0-11.353,0.817-16.809,2.35c0.25-7.813,6.668-14.095,14.541-14.095h370.117
	C449.089,84.776,455.623,91.309,455.623,99.34z"/>
</symbol>
<symbol version="1.1" id="home" xmlns="http://www.w3.org/2000/svg" xmlns:xlink="http://www.w3.org/1999/xlink" x="0px" y="0px"
	 viewBox="0 0 512.001 512.001" style="enable-background:new 0 0 512.001 512.001;" xml:space="preserve">
<polygon style="fill:#FFD782;" points="105.871,7.992 105.871,388.026 255.999,417.023 406.127,388.026 406.127,7.992 "/>
<rect x="145.673" y="47.798" style="fill:#FF6465;" width="220.643" height="369.226"/>
<g>
	<circle style="fill:#FFD782;" cx="192.001" cy="234.911" r="19.998"/>
	<polygon style="fill:#FFD782;" points="406.127,446.018 255.999,417.023 105.871,446.018 78.624,446.018 78.624,504.01 
		433.374,504.01 433.374,446.018 	"/>
</g>
<rect x="105.867" y="388.022" style="fill:#F2C76D;" width="300.256" height="57.995"/>
<path d="M192.005,262.899c15.434,0,27.991-12.556,27.991-27.989s-12.556-27.991-27.991-27.991s-27.991,12.557-27.991,27.991
	S176.571,262.899,192.005,262.899z M192.005,222.903c6.621,0,12.008,5.387,12.008,12.008s-5.387,12.007-12.008,12.007
	s-12.008-5.386-12.008-12.007S185.384,222.903,192.005,222.903z"/>
<path d="M439.026,440.367c-1.499-1.499-3.531-2.341-5.651-2.341h-19.256v-50c0,0,0-379.975,0-380.029
	c0-2.935-1.721-5.744-4.318-7.103c-0.215-0.112-0.442-0.195-0.659-0.303c-0.935-0.369-1.923-0.576-2.93-0.587
	c-0.028,0-0.055-0.004-0.084-0.004c0,0-300.246,0-300.254,0c-1.702,0-3.393,0.554-4.754,1.577c-1.148,0.862-2.019,1.974-2.601,3.286
	c-0.434,0.977-0.638,2.067-0.638,3.134v380.029v50H78.625c-4.414,0-7.991,3.578-7.991,7.991v57.993c0,4.413,3.577,7.991,7.991,7.991
	h354.751c4.414,0,7.991-3.578,7.991-7.991v-57.993C441.366,443.898,440.524,441.866,439.026,440.367z M386.835,15.983
	l-23.822,23.823H148.987l-23.823-23.823H386.835z M113.862,27.285l23.822,23.823v270.29c0,4.413,3.577,7.991,7.991,7.991
	c4.414,0,7.991-3.578,7.991-7.991V55.789h204.664V74.07c0,4.413,3.577,7.991,7.991,7.991c4.414,0,7.991-3.578,7.991-7.991V51.109
	l23.822-23.823v352.75h-23.822V105.939c0-4.413-3.577-7.991-7.991-7.991c-4.414,0-7.991,3.578-7.991,7.991v274.096H153.667v-27.222
	c0-4.413-3.577-7.991-7.991-7.991c-4.414,0-7.991,3.578-7.991,7.991v27.222h-23.822V27.285z M425.384,496.019H86.615v-42.01h19.246
	c0.003,0,0.006,0,0.01,0h218.725c4.414,0,7.991-3.578,7.991-7.991s-3.577-7.991-7.991-7.991H113.862v-42.009h284.275v42.009h-41.891
	c-4.414,0-7.991,3.578-7.991,7.991s3.577,7.991,7.991,7.991h49.882c0,0,0.004,0,0.007,0h19.248L425.384,496.019L425.384,496.019z"/>
</symbol>

</svg>
